<svg width="640" height="420" viewBox="0 0 640 420" fill="none" xmlns="http://www.w3.org/2000/svg">
  <defs>
    <linearGradient id="bg2" x1="0" y1="0" x2="640" y2="420" gradientUnits="userSpaceOnUse">
      <stop stop-color="#ECFEFF"/>
      <stop offset="1" stop-color="#E0E7FF"/>
    </linearGradient>
    <linearGradient id="accent2" x1="160" y1="70" x2="500" y2="350" gradientUnits="userSpaceOnUse">
      <stop stop-color="#22C55E"/>
      <stop offset="1" stop-color="#0EA5A4"/>
    </linearGradient>
  </defs>
  <rect width="640" height="420" rx="32" fill="url(#bg2)"/>
  <circle cx="520" cy="90" r="70" fill="#D8FBEA"/>
  <circle cx="130" cy="320" r="90" fill="#D9E8FF"/>
  <rect x="150" y="100" width="340" height="220" rx="28" fill="white" stroke="#E2E8F0" stroke-width="2"/>
  <rect x="185" y="135" width="270" height="14" rx="7" fill="#CBD5E1"/>
  <rect x="185" y="166" width="210" height="12" rx="6" fill="#E2E8F0"/>
  <rect x="185" y="196" width="240" height="12" rx="6" fill="#E2E8F0"/>
  <rect x="185" y="236" width="180" height="60" rx="18" fill="url(#accent2)"/>
  <path d="M290 250C279 250 270 259 270 270C270 287 290 301 290 301C290 301 310 287 310 270C310 259 301 250 290 250Z" fill="white"/>
  <path d="M400 252C388 252 378 262 378 274C378 292 400 306 400 306C400 306 422 292 422 274C422 262 412 252 400 252Z" fill="white"/>
  <path d="M332 248C320 248 310 258 310 270C310 289 332 304 332 304C332 304 354 289 354 270C354 258 344 248 332 248Z" fill="#0EA5A4"/>
  <path d="M325 270H339" stroke="white" stroke-width="6" stroke-linecap="round"/>
  <path d="M332 263V277" stroke="white" stroke-width="6" stroke-linecap="round"/>
</svg>
