<svg width="640" height="420" viewBox="0 0 640 420" fill="none" xmlns="http://www.w3.org/2000/svg">
  <defs>
    <linearGradient id="bg" x1="0" y1="0" x2="640" y2="420" gradientUnits="userSpaceOnUse">
      <stop stop-color="#E0F2FE"/>
      <stop offset="1" stop-color="#E8F5E9"/>
    </linearGradient>
    <linearGradient id="accent" x1="120" y1="60" x2="520" y2="360" gradientUnits="userSpaceOnUse">
      <stop stop-color="#0EA5A4"/>
      <stop offset="1" stop-color="#2563EB"/>
    </linearGradient>
  </defs>
  <rect width="640" height="420" rx="32" fill="url(#bg)"/>
  <circle cx="120" cy="90" r="70" fill="#BFE8F7"/>
  <circle cx="520" cy="320" r="90" fill="#CFF5D8"/>
  <rect x="140" y="90" width="360" height="240" rx="28" fill="white" stroke="#E2E8F0" stroke-width="2"/>
  <rect x="175" y="130" width="290" height="16" rx="8" fill="#CBD5E1"/>
  <rect x="175" y="164" width="220" height="12" rx="6" fill="#E2E8F0"/>
  <rect x="175" y="196" width="260" height="12" rx="6" fill="#E2E8F0"/>
  <rect x="175" y="248" width="120" height="52" rx="16" fill="url(#accent)"/>
  <path d="M330 250C315 250 303 262 303 277C303 300 330 318 330 318C330 318 357 300 357 277C357 262 345 250 330 250Z" fill="white"/>
  <rect x="320" y="260" width="20" height="32" rx="6" fill="#0EA5A4"/>
  <rect x="312" y="268" width="36" height="8" rx="4" fill="white"/>
</svg>
